<svg width="152" height="28" viewBox="0 0 152 28" fill="none" xmlns="http://www.w3.org/2000/svg">
<path d="M8.548 17.1L17.692 27H12.148L4.804 18.468V27H0.7V0.36H4.804V15.84L12.004 7.164H17.692L8.548 17.1ZM24.7376 10.044C25.3376 9.036 26.1296 8.256 27.1136 7.704C28.1216 7.128 29.3096 6.84 30.6776 6.84V11.088H29.6336C28.0256 11.088 26.8016 11.496 25.9616 12.312C25.1456 13.128 24.7376 14.544 24.7376 16.56V27H20.6336V7.164H24.7376V10.044ZM43.054 27.324C41.182 27.324 39.49 26.904 37.978 26.064C36.466 25.2 35.278 24 34.414 22.464C33.55 20.904 33.118 19.104 33.118 17.064C33.118 15.048 33.562 13.26 34.45 11.7C35.338 10.14 36.55 8.94 38.086 8.1C39.622 7.26 41.338 6.84 43.234 6.84C45.13 6.84 46.846 7.26 48.382 8.1C49.918 8.94 51.13 10.14 52.018 11.7C52.906 13.26 53.35 15.048 53.35 17.064C53.35 19.08 52.894 20.868 51.982 22.428C51.07 23.988 49.822 25.2 48.238 26.064C46.678 26.904 44.95 27.324 43.054 27.324ZM43.054 23.76C44.11 23.76 45.094 23.508 46.006 23.004C46.942 22.5 47.698 21.744 48.274 20.736C48.85 19.728 49.138 18.504 49.138 17.064C49.138 15.624 48.862 14.412 48.31 13.428C47.758 12.42 47.026 11.664 46.114 11.16C45.202 10.656 44.218 10.404 43.162 10.404C42.106 10.404 41.122 10.656 40.21 11.16C39.322 11.664 38.614 12.42 38.086 13.428C37.558 14.412 37.294 15.624 37.294 17.064C37.294 19.2 37.834 20.856 38.914 22.032C40.018 23.184 41.398 23.76 43.054 23.76Z" fill="white"/>
<path d="M67.415 6.84C68.975 6.84 70.367 7.164 71.591 7.812C72.839 8.46 73.811 9.42 74.507 10.692C75.203 11.964 75.551 13.5 75.551 15.3V27H71.483V15.912C71.483 14.136 71.039 12.78 70.151 11.844C69.263 10.884 68.051 10.404 66.515 10.404C64.979 10.404 63.755 10.884 62.843 11.844C61.955 12.78 61.511 14.136 61.511 15.912V27H57.407V7.164H61.511V9.432C62.183 8.616 63.035 7.98 64.067 7.524C65.123 7.068 66.239 6.84 67.415 6.84ZM98.7499 7.164V27H94.6459V24.66C93.9979 25.476 93.1459 26.124 92.0899 26.604C91.0579 27.06 89.9539 27.288 88.7779 27.288C87.2179 27.288 85.8139 26.964 84.5659 26.316C83.3419 25.668 82.3699 24.708 81.6499 23.436C80.9539 22.164 80.6059 20.628 80.6059 18.828V7.164H84.6739V18.216C84.6739 19.992 85.1179 21.36 86.0059 22.32C86.8939 23.256 88.1059 23.724 89.6419 23.724C91.1779 23.724 92.3899 23.256 93.2779 22.32C94.1899 21.36 94.6459 19.992 94.6459 18.216V7.164H98.7499ZM114.425 6.84C115.937 6.84 117.281 7.164 118.457 7.812C119.657 8.46 120.593 9.42 121.265 10.692C121.961 11.964 122.309 13.5 122.309 15.3V27H118.241V15.912C118.241 14.136 117.797 12.78 116.909 11.844C116.021 10.884 114.809 10.404 113.273 10.404C111.737 10.404 110.513 10.884 109.601 11.844C108.713 12.78 108.269 14.136 108.269 15.912V27H104.165V0.36H108.269V9.468C108.965 8.628 109.841 7.98 110.897 7.524C111.977 7.068 113.153 6.84 114.425 6.84ZM134.744 27.324C133.184 27.324 131.78 27.048 130.532 26.496C129.308 25.92 128.336 25.152 127.616 24.192C126.896 23.208 126.512 22.116 126.464 20.916H130.712C130.784 21.756 131.18 22.464 131.9 23.04C132.644 23.592 133.568 23.868 134.672 23.868C135.824 23.868 136.712 23.652 137.336 23.22C137.984 22.764 138.308 22.188 138.308 21.492C138.308 20.748 137.948 20.196 137.228 19.836C136.532 19.476 135.416 19.08 133.88 18.648C132.392 18.24 131.18 17.844 130.244 17.46C129.308 17.076 128.492 16.488 127.796 15.696C127.124 14.904 126.788 13.86 126.788 12.564C126.788 11.508 127.1 10.548 127.724 9.684C128.348 8.796 129.236 8.1 130.388 7.596C131.564 7.092 132.908 6.84 134.42 6.84C136.676 6.84 138.488 7.416 139.856 8.568C141.248 9.696 141.992 11.244 142.088 13.212H137.984C137.912 12.324 137.552 11.616 136.904 11.088C136.256 10.56 135.38 10.296 134.276 10.296C133.196 10.296 132.368 10.5 131.792 10.908C131.216 11.316 130.928 11.856 130.928 12.528C130.928 13.056 131.12 13.5 131.504 13.86C131.888 14.22 132.356 14.508 132.908 14.724C133.46 14.916 134.276 15.168 135.356 15.48C136.796 15.864 137.972 16.26 138.884 16.668C139.82 17.052 140.624 17.628 141.296 18.396C141.968 19.164 142.316 20.184 142.34 21.456C142.34 22.584 142.028 23.592 141.404 24.48C140.78 25.368 139.892 26.064 138.74 26.568C137.612 27.072 136.28 27.324 134.744 27.324ZM148.43 27.252C147.686 27.252 147.062 27 146.558 26.496C146.054 25.992 145.802 25.368 145.802 24.624C145.802 23.88 146.054 23.256 146.558 22.752C147.062 22.248 147.686 21.996 148.43 21.996C149.15 21.996 149.762 22.248 150.266 22.752C150.77 23.256 151.022 23.88 151.022 24.624C151.022 25.368 150.77 25.992 150.266 26.496C149.762 27 149.15 27.252 148.43 27.252Z" fill="url(#paint0_linear_7_531)"/>
<defs>
<linearGradient id="paint0_linear_7_531" x1="63.2632" y1="5" x2="174.272" y2="40.8096" gradientUnits="userSpaceOnUse">
<stop stop-color="#11EF76"/>
<stop offset="1" stop-color="#20E77A" stop-opacity="0"/>
</linearGradient>
</defs>
</svg>
