<svg width="25" height="25" viewBox="0 0 25 25" fill="none" xmlns="http://www.w3.org/2000/svg">
<path fill-rule="evenodd" clip-rule="evenodd" d="M12.0589 0C5.3998 0 0 5.73802 0 12.8164C0 18.4792 3.45523 23.2833 8.24662 24.978C8.84926 25.0966 9.07056 24.7 9.07056 24.3614C9.07056 24.0558 9.05931 23.0461 9.0542 21.9752C5.69932 22.7505 4.99142 20.4631 4.99142 20.4631C4.44288 18.9816 3.65251 18.5878 3.65251 18.5878C2.55846 17.7923 3.73498 17.8086 3.73498 17.8086C4.94593 17.8991 5.58356 19.1294 5.58356 19.1294C6.65907 21.0888 8.40456 20.5223 9.09269 20.1949C9.20089 19.3664 9.51346 18.8011 9.85828 18.4811C7.1799 18.1569 4.36419 17.0579 4.36419 12.1471C4.36419 10.7479 4.83528 9.60451 5.60673 8.70699C5.48151 8.38413 5.06878 7.08062 5.72353 5.31524C5.72353 5.31524 6.73615 4.97077 9.04058 6.629C10.0024 6.34494 11.034 6.20261 12.0589 6.19778C13.0837 6.20261 14.1161 6.34494 15.0798 6.629C17.3815 4.97077 18.3927 5.31524 18.3927 5.31524C19.0491 7.08062 18.6361 8.38413 18.5109 8.70699C19.2841 9.60451 19.7519 10.7478 19.7519 12.1471C19.7519 17.0696 16.9309 18.1536 14.2457 18.4708C14.6782 18.8686 15.0636 19.6486 15.0636 20.8442C15.0636 22.559 15.0496 23.9392 15.0496 24.3614C15.0496 24.7025 15.2667 25.1021 15.878 24.9763C20.6668 23.2796 24.1176 18.4772 24.1176 12.8164C24.1176 5.73802 18.7186 0 12.0589 0Z" fill="white"/>
<path d="M4.52235 18.2538C4.49606 18.3176 4.40235 18.3368 4.31719 18.293C4.23033 18.251 4.18151 18.1639 4.20968 18.0998C4.2355 18.034 4.32921 18.0157 4.41587 18.0598C4.50291 18.1017 4.55249 18.1896 4.52235 18.2538ZM5.11126 18.8181C5.05417 18.875 4.94253 18.8485 4.86675 18.7587C4.78845 18.669 4.7738 18.5492 4.83173 18.4915C4.8906 18.4347 4.99886 18.4612 5.07736 18.5509C5.15567 18.6416 5.17088 18.7607 5.11116 18.8182L5.11126 18.8181ZM5.51529 19.5401C5.44186 19.5949 5.32186 19.5436 5.24778 19.4292C5.17445 19.3149 5.17445 19.1778 5.24938 19.1228C5.32374 19.0679 5.44186 19.1173 5.51698 19.2307C5.59022 19.347 5.59022 19.4842 5.51519 19.5402L5.51529 19.5401ZM6.19847 20.3764C6.13284 20.4541 5.99312 20.4333 5.89077 20.3272C5.78617 20.2236 5.75697 20.0764 5.82279 19.9987C5.88918 19.9208 6.02974 19.9427 6.13283 20.0479C6.23678 20.1514 6.26851 20.2996 6.19856 20.3764H6.19847ZM7.08146 20.6588C7.05263 20.7594 6.91799 20.8052 6.7824 20.7625C6.647 20.7184 6.55837 20.6004 6.58569 20.4987C6.61386 20.3973 6.74907 20.3496 6.88569 20.3954C7.02089 20.4393 7.10972 20.5563 7.08155 20.6588H7.08146ZM8.08651 20.7785C8.08989 20.8846 7.97487 20.9725 7.83252 20.9744C7.68933 20.9778 7.57356 20.892 7.57206 20.7877C7.57206 20.6806 7.68445 20.5935 7.82755 20.5909C7.96989 20.5879 8.08651 20.6731 8.08651 20.7785ZM9.07372 20.7379C9.09081 20.8413 8.99185 20.9476 8.85053 20.9759C8.71157 21.0031 8.58293 20.9392 8.56519 20.8367C8.54791 20.7306 8.64875 20.6244 8.78744 20.5969C8.92903 20.5705 9.05569 20.6327 9.07372 20.7379Z" fill="white"/>
</svg>
