<svg width="598" height="598" viewBox="0 0 598 598" fill="none" xmlns="http://www.w3.org/2000/svg">
<path d="M42.7259 221.672H34.4724C15.9785 221.672 1 236.022 1 253.74V429.897C1 447.615 15.9785 461.966 34.4724 461.966H148.186C166.681 461.966 181.659 447.615 181.659 429.897" stroke="#263238" stroke-width="1.1031" stroke-miterlimit="10" stroke-linecap="round" stroke-linejoin="round" stroke-dasharray="4.41 4.41"/>
<path d="M172.335 55.3259V20.6218C172.335 9.78582 181.506 1 192.817 1H340.615C351.925 1 361.095 9.78582 361.095 20.6218" stroke="#263238" stroke-width="1.1031" stroke-miterlimit="10" stroke-linecap="round" stroke-linejoin="round" stroke-dasharray="4.41 4.41"/>
<path d="M305.308 598C466.957 598 598 580.43 598 558.757C598 537.083 466.957 519.512 305.308 519.512C143.659 519.512 12.616 537.083 12.616 558.757C12.616 580.43 143.659 598 305.308 598Z" fill="#11EF76"/>
<path opacity="0.5" d="M305.308 598C466.957 598 598 580.43 598 558.757C598 537.083 466.957 519.512 305.308 519.512C143.659 519.512 12.616 537.083 12.616 558.757C12.616 580.43 143.659 598 305.308 598Z" fill="white"/>
<path d="M581.341 102.037V365.76C581.341 383.771 566.209 398.268 547.409 398.268H63.3595C44.56 398.268 29.4286 383.771 29.4286 365.76V102.037C29.4286 101.305 29.4286 100.573 29.5815 99.6943C30.8042 82.8545 45.4771 69.5296 63.3595 69.5296H547.409C565.292 69.5296 579.965 82.8545 581.187 99.6943C581.341 100.573 581.341 101.305 581.341 102.037Z" fill="white" stroke="#263238" stroke-width="1.1031" stroke-miterlimit="10" stroke-linecap="round" stroke-linejoin="round"/>
<path d="M534.724 385.967H77.7266C60.1498 385.967 45.9356 372.35 45.9356 355.51V111.994H566.515V355.51C566.515 372.35 552.3 385.967 534.724 385.967Z" fill="#263238"/>
<path opacity="0.2" d="M566.515 111.994V355.51C566.515 372.35 552.454 385.967 535.029 385.967H77.421C59.997 385.967 45.9356 372.35 45.9356 355.51V111.994H566.515Z" fill="white"/>
<path d="M581.187 99.8407H29.582C30.8047 82.8545 45.4775 69.5296 63.36 69.5296H547.41C565.292 69.5296 579.965 82.8545 581.187 99.8407Z" fill="#11EF76" stroke="#263238" stroke-width="1.1031" stroke-miterlimit="10"/>
<path d="M97.2902 84.6125C97.2902 87.8336 94.5394 90.3227 91.3301 90.3227C87.9676 90.3227 85.3688 87.6872 85.3688 84.6125C85.3688 81.3903 88.1197 78.9013 91.3301 78.9013C94.6926 78.9013 97.2902 81.5367 97.2902 84.6125Z" fill="#263238"/>
<path d="M122.662 84.6125C122.662 87.8336 119.911 90.3227 116.701 90.3227C113.339 90.3227 110.74 87.6872 110.74 84.6125C110.74 81.3903 113.492 78.9013 116.701 78.9013C120.064 78.9013 122.662 81.5367 122.662 84.6125Z" fill="#263238"/>
<path d="M142.073 90.3227C145.366 90.3227 148.034 87.7659 148.034 84.6125C148.034 81.4581 145.366 78.9013 142.073 78.9013C138.781 78.9013 136.113 81.4581 136.113 84.6125C136.113 87.7659 138.781 90.3227 142.073 90.3227Z" fill="#263238"/>
<path d="M566.515 111.994V355.51C566.515 372.35 552.3 385.967 534.724 385.967H77.7266C62.2896 385.967 49.451 375.424 46.5469 361.367C46.0884 359.463 45.9356 357.56 45.9356 355.51V111.994H566.515Z" stroke="#263238" stroke-width="1.1031" stroke-miterlimit="10"/>
<path d="M566.057 149.628C563.763 148.457 561.471 147.431 559.025 146.845L556.121 134.545H544.047L541.143 146.845C538.697 147.431 536.252 148.457 534.112 149.628L523.108 142.892L514.548 151.092L521.426 161.635C520.204 163.831 519.134 166.027 518.522 168.371L505.684 171.153V182.721L518.522 185.504C519.134 187.846 520.204 190.189 521.426 192.385L514.396 202.928L522.955 211.128L533.959 204.393C536.252 205.565 538.545 206.59 540.991 207.175L543.895 219.329H555.968L558.872 207.175C561.318 206.443 563.763 205.565 565.904 204.393L566.515 204.686V149.335L566.057 149.628ZM550.161 192.092C541.449 192.092 534.418 185.357 534.418 177.011C534.418 168.664 541.449 161.928 550.161 161.928C558.872 161.928 565.904 168.664 565.904 177.011C565.75 185.357 558.72 192.092 550.161 192.092Z" fill="#263238"/>
<path d="M347.34 161.489V137.034L320.44 131.324C318.911 126.345 316.924 121.512 314.325 116.973L317.536 111.994H190.524L193.734 116.827C191.135 121.366 188.996 126.198 187.62 131.177L160.719 136.888V161.342L187.62 167.052C188.996 172.031 191.135 176.863 193.734 181.403L178.908 203.66L196.943 220.939L220.175 206.736C224.913 209.225 229.957 211.275 235.154 212.593L241.115 238.365H266.639L272.6 212.593C277.796 211.128 282.841 209.225 287.425 206.736L310.658 220.939L328.693 203.66L314.02 181.403C316.619 176.863 318.758 172.031 320.133 167.052L347.34 161.489ZM254.107 180.817C235.918 180.817 221.092 166.613 221.092 149.188C221.092 131.763 235.918 117.559 254.107 117.559C272.295 117.559 287.12 131.763 287.12 149.188C287.12 166.613 272.295 180.817 254.107 180.817Z" fill="#263238"/>
<path d="M177.532 329.738L178.602 310.263L157.51 304.551C156.593 300.598 155.064 296.644 153.231 292.984L165.917 275.851L152.314 261.355L133.209 271.605C129.54 269.409 125.719 267.651 121.593 266.333L118.077 245.833L97.7487 244.808L91.9407 265.015C87.8144 265.894 83.6875 267.358 79.8666 269.116L61.984 256.961L46.8526 269.994L57.7045 288.298C55.4119 291.812 53.5778 295.473 52.2021 299.427L46.0884 300.452V326.81L50.5209 327.981C51.4379 331.934 52.9663 335.888 54.8004 339.549L46.0884 351.263L46.6998 361.367L55.7175 371.031L74.8227 360.781C78.4909 362.978 82.312 364.882 86.439 366.199L89.9536 386.114L90.1068 386.992L110.435 388.017L111.047 386.114L116.395 367.81C120.676 366.931 124.649 365.467 128.47 363.71L146.2 375.864L161.331 362.832L150.632 344.528C152.925 341.013 154.759 337.353 156.135 333.398L177.532 329.738ZM123.58 299.427C113.798 289.03 97.2903 288.298 86.439 297.524C75.587 306.895 74.8227 322.709 84.452 333.105C94.2342 343.503 110.74 344.235 121.593 335.01C132.444 325.785 133.361 309.823 123.58 299.427Z" fill="#263238"/>
<path d="M339.85 300.745C340.615 297.67 341.073 294.594 341.073 291.52L355.593 284.198L351.619 269.994L335.112 270.727C333.431 268.091 331.444 265.601 329.152 263.405L334.042 248.322L320.745 241.001L309.587 252.569C306.53 251.837 303.168 251.398 299.958 251.398L292.316 237.34L277.491 241.148L278.255 256.961C275.504 258.572 272.905 260.476 270.613 262.673L254.87 257.986L247.229 270.727L259.455 281.416C258.691 284.491 258.233 287.566 258.233 290.641L243.56 297.963L247.534 312.166L264.041 311.434C265.722 314.069 267.709 316.56 270.001 318.756L265.111 333.839L278.408 341.159L289.412 329.592C292.622 330.324 295.832 330.763 299.041 330.763L306.683 344.821L321.509 341.013L320.898 327.542L320.745 325.199C323.496 323.589 326.095 321.684 328.54 319.488L344.283 324.174L350.854 313.337L351.925 311.434L339.85 300.745ZM305.003 309.384C294.457 312.166 283.604 306.163 280.7 296.059C277.796 285.955 284.063 275.558 294.609 272.776C305.155 269.994 316.007 275.997 318.911 286.101C321.662 296.206 315.549 306.602 305.003 309.384Z" fill="#263238"/>
<path d="M509.2 325.638L512.562 306.162L491.929 298.256C491.469 294.155 490.4 290.055 489.025 286.101L503.85 270.287L491.929 254.18L471.447 262.526C468.085 259.89 464.417 257.694 460.443 255.937L459.219 234.704L438.892 231.482L430.639 251.104C426.359 251.544 422.08 252.569 417.952 253.887L401.445 239.682L384.633 251.104L393.345 270.58C390.899 273.508 388.912 276.583 387.231 279.805C386.926 280.245 386.773 280.684 386.468 281.123L364.306 282.294L360.943 301.77L364.306 303.087L381.577 309.677C382.035 313.777 382.952 317.877 384.481 321.83L369.654 337.645L381.577 353.753L402.057 345.406C405.419 348.042 409.088 350.238 413.061 351.995L414.285 373.082L434.613 376.303L442.865 356.828C447.146 356.389 451.425 355.364 455.552 354.046L472.059 368.249L488.871 356.681L480.159 337.06C482.91 333.838 485.202 330.177 487.19 326.517L509.2 325.638ZM452.189 324.759C440.268 332.959 423.607 330.324 415.048 318.902C406.49 307.481 409.24 291.52 421.162 283.319C433.084 275.119 449.744 277.754 458.302 289.177C466.862 300.745 464.111 316.56 452.189 324.759Z" fill="#263238"/>
<path d="M233.625 431.947H73.7528C62.7482 431.947 53.7305 423.307 53.7305 412.764V200.732C53.7305 190.189 62.7482 181.549 73.7528 181.549H233.625C244.63 181.549 253.647 190.189 253.647 200.732V412.764C253.647 423.307 244.783 431.947 233.625 431.947Z" fill="#11EF76" stroke="#263238" stroke-width="1.1031" stroke-miterlimit="10"/>
<path opacity="0.2" d="M233.625 431.947H73.7528C62.7482 431.947 53.7305 423.307 53.7305 412.764V200.732C53.7305 190.189 62.7482 181.549 73.7528 181.549H233.625C244.63 181.549 253.647 190.189 253.647 200.732V412.764C253.647 423.307 244.783 431.947 233.625 431.947Z" fill="black"/>
<path d="M272.295 219.622V431.654C272.295 442.197 263.277 450.836 252.272 450.836H92.3991C81.395 450.836 72.3773 442.197 72.3773 431.654V219.622C72.3773 209.079 81.395 200.439 92.3991 200.439H252.272C263.277 200.439 272.295 209.079 272.295 219.622Z" fill="white" stroke="#263238" stroke-width="1.1031" stroke-miterlimit="10" stroke-linecap="round" stroke-linejoin="round"/>
<path d="M272.295 219.622V231.043H72.3773V219.622C72.3773 209.079 81.395 200.439 92.3991 200.439H252.272C263.277 200.439 272.295 209.079 272.295 219.622Z" fill="#11EF76" stroke="#263238" stroke-width="1.1031" stroke-miterlimit="10"/>
<path d="M140.392 244.076H91.1769V251.983H140.392V244.076Z" fill="#11EF76"/>
<path d="M140.392 314.949H91.1769V322.855H140.392V314.949Z" fill="#11EF76"/>
<path d="M140.392 379.231H91.1769V387.139H140.392V379.231Z" fill="#11EF76"/>
<path d="M230.874 263.698H91.1769V269.554H230.874V263.698Z" fill="#263238"/>
<path d="M205.655 274.826H91.1769V280.536H205.655V274.826Z" fill="#263238"/>
<path d="M220.634 285.662H91.1769V291.373H220.634V285.662Z" fill="#263238"/>
<path d="M220.634 296.644H91.1769V302.355H220.634V296.644Z" fill="#263238"/>
<path d="M230.874 327.981H91.1769V333.838H230.874V327.981Z" fill="#263238"/>
<path d="M205.655 339.11H91.1769V344.821H205.655V339.11Z" fill="#263238"/>
<path d="M220.634 349.945H91.1769V355.656H220.634V349.945Z" fill="#263238"/>
<path d="M230.874 398.56H91.1769V404.418H230.874V398.56Z" fill="#263238"/>
<path d="M205.655 409.542H91.1769V415.253H205.655V409.542Z" fill="#263238"/>
<path d="M220.634 420.526H91.1769V426.236H220.634V420.526Z" fill="#263238"/>
<path d="M497.583 53.4222V139.084C497.583 151.678 486.884 161.928 473.739 161.928H267.709C254.565 161.928 243.866 151.678 243.866 139.084V53.4222C243.866 40.8291 254.565 30.5789 267.709 30.5789H473.739C486.884 30.5789 497.583 40.8291 497.583 53.4222Z" fill="white" stroke="#222221" stroke-width="1.1031" stroke-miterlimit="10"/>
<path d="M497.583 53.4222V55.3258H243.866V53.4222C243.866 40.8291 254.565 30.5789 267.709 30.5789H473.739C486.884 30.5789 497.583 40.8291 497.583 53.4222Z" fill="#11EF76" stroke="#263238" stroke-width="1.1031" stroke-miterlimit="10"/>
<path d="M281.007 46.9793C279.631 48.2971 277.186 48.2971 275.81 46.9793C274.434 45.6613 274.434 43.3185 275.81 42.0005C277.186 40.6827 279.631 40.6827 281.007 42.0005C282.535 43.4649 282.535 45.6613 281.007 46.9793Z" fill="#263238"/>
<path d="M298.124 46.9793C296.749 48.2971 294.303 48.2971 292.928 46.9793C291.553 45.6613 291.553 43.3185 292.928 42.0005C294.303 40.6827 296.749 40.6827 298.124 42.0005C299.5 43.4649 299.5 45.6613 298.124 46.9793Z" fill="#263238"/>
<path d="M315.09 46.9793C313.715 48.2971 311.269 48.2971 309.894 46.9793C308.517 45.6613 308.517 43.3185 309.894 42.0005C311.269 40.6827 313.715 40.6827 315.09 42.0005C316.466 43.4649 316.466 45.6613 315.09 46.9793Z" fill="#263238"/>
<path d="M342.907 71.1402H259.914V139.816H342.907V71.1402Z" stroke="#263238" stroke-width="1.1031" stroke-miterlimit="10" stroke-linecap="round" stroke-linejoin="round" stroke-dasharray="4.41 4.41"/>
<path d="M451.272 71.1402H355.747V75.9725H451.272V71.1402Z" fill="#263238"/>
<path d="M428.958 81.0975H355.747V85.9303H428.958V81.0975Z" fill="#263238"/>
<path d="M464.875 91.0548H355.747V95.8875H464.875V91.0548Z" fill="#263238"/>
<path d="M448.675 100.866H355.747V105.698H448.675V100.866Z" fill="#263238"/>
<path d="M376.991 551.581C376.991 551.581 332.667 563.735 326.553 565.932C320.898 567.835 305.613 572.96 294.15 571.349C293.08 571.203 291.858 570.91 290.941 570.617C279.325 567.25 274.129 564.174 272.6 557.293C271.071 550.264 276.879 545.138 282.382 541.917C287.884 538.548 318.146 535.181 318.146 535.181L325.483 537.231L376.991 551.581Z" fill="#11EF76"/>
<path d="M294.15 571.203C293.08 571.057 291.858 570.764 290.941 570.471C279.325 567.103 274.129 564.028 272.6 557.146C271.071 550.117 276.879 544.992 282.382 541.771C287.884 538.403 318.146 535.034 318.146 535.034L325.483 537.085C318.911 540.014 294.304 541.624 288.954 544.552C283.604 547.482 281.007 553.045 284.216 560.66C285.745 564.613 290.329 568.568 294.15 571.203Z" fill="white"/>
<path d="M370.266 553.338C370.266 553.338 336.946 561.539 323.802 566.957C310.658 572.228 285.438 574.57 276.421 563.588C267.403 552.753 275.351 543.235 284.369 541.185C293.387 539.134 311.421 535.766 321.357 537.084" stroke="#263238" stroke-width="1.1031" stroke-miterlimit="10" stroke-linecap="round" stroke-linejoin="round"/>
<path d="M294.762 570.617C294.762 570.617 277.796 561.685 283.451 549.239C287.579 540.013 310.199 542.063 321.357 536.938" stroke="#263238" stroke-width="1.1031" stroke-miterlimit="10" stroke-linecap="round" stroke-linejoin="round"/>
<path d="M511.95 573.253C511.492 577.646 509.963 581.746 505.377 584.382C502.321 586.139 498.042 587.164 491.775 587.018C476.185 586.871 446.993 576.182 446.993 576.182L419.633 561.685L433.848 540.16L437.669 534.302L447.756 536.498C447.756 536.498 456.01 541.038 464.417 544.552C472.823 548.214 493.151 548.946 500.334 554.51C507.518 559.928 512.714 565.932 511.95 573.253Z" fill="#11EF76"/>
<path d="M511.95 573.253C511.492 577.646 509.963 581.746 505.378 584.382C506.295 581.014 506.906 576.329 504.614 571.349C501.556 564.76 491.622 559.049 478.477 558.025C465.486 557 455.398 551.142 450.202 548.507C446.076 546.456 437.516 542.063 433.848 540.16L437.669 534.302L447.756 536.498C447.756 536.498 456.01 541.038 464.417 544.552C472.822 548.214 493.151 548.946 500.334 554.51C507.518 559.928 512.714 565.932 511.95 573.253Z" fill="white"/>
<path d="M425.594 565.784C445.006 576.475 467.32 584.236 489.635 586.725C494.679 587.311 500.334 587.311 503.697 583.796C505.531 581.746 506.294 578.964 505.989 576.328C505.377 569.592 499.417 564.32 492.998 561.538C486.578 558.903 479.394 558.171 472.517 556.706C465.639 555.242 459.067 552.899 452.801 549.824C447.91 547.334 443.019 544.406 437.669 543.235C432.167 542.063 425.748 543.527 422.844 548.067" stroke="#263238" stroke-width="1.1031" stroke-miterlimit="10" stroke-linecap="round" stroke-linejoin="round"/>
<path d="M502.016 585.554C507.059 583.064 511.185 578.525 511.95 573.106C512.867 566.811 509.2 560.367 503.85 556.414C498.5 552.46 491.927 550.703 485.356 549.385C478.784 548.067 472.059 547.189 465.792 544.845C456.163 541.185 446.686 534.156 436.752 536.645" stroke="#263238" stroke-width="1.1031" stroke-miterlimit="10" stroke-linecap="round" stroke-linejoin="round"/>
<path d="M456.469 338.963L410.157 322.123L409.546 321.977C409.546 321.977 409.699 320.806 409.852 319.049C410.157 315.535 410.31 309.677 408.629 307.774C406.031 304.844 398.694 307.334 391.664 304.112C384.481 301.038 371.336 306.602 371.336 306.602C371.336 306.602 361.86 304.991 357.579 311.58C355.44 316.852 356.204 324.76 356.204 324.76C356.204 324.76 355.899 324.906 355.287 325.053C349.785 326.956 319.828 337.792 313.408 342.184C306.378 347.017 298.583 395.778 296.137 410.129C293.692 424.479 289.259 437.365 291.4 442.343C293.692 447.323 325.942 471.044 344.436 477.194C362.929 483.345 428.804 481.587 428.804 481.587C428.804 481.587 429.874 481.294 431.861 480.708C443.019 477.341 482.452 463.137 503.392 429.897C503.392 429.897 483.215 366.199 456.469 338.963ZM331.444 421.111C328.082 423.454 329.916 432.386 329.916 432.386L324.108 427.554L338.628 393.289L344.894 419.647C344.894 419.501 334.807 418.769 331.444 421.111ZM447.91 442.929C446.381 443.661 452.494 427.262 449.59 423.454C446.686 419.647 437.822 420.086 437.822 420.086L438.586 415.546C438.739 415.107 443.782 389.775 443.782 389.775L445.464 387.724C445.464 387.724 463.499 417.304 466.709 427.701C466.709 427.847 446.993 442.929 447.91 442.929Z" fill="#11EF76"/>
<path d="M369.196 232.068L345.353 256.376C345.353 256.376 341.99 259.158 343.366 266.187C344.741 273.216 347.798 279.366 350.091 279.805C352.383 280.245 355.593 280.245 355.593 280.245C355.593 280.245 360.79 290.934 364.306 295.033C364.306 295.033 365.528 311.434 364.916 315.974C364.916 315.974 373.475 323.148 381.576 324.027C389.677 324.906 402.21 313.045 402.21 313.045L405.266 298.548C405.266 298.548 412.603 287.859 413.061 285.076C413.52 282.294 416.882 283.026 418.564 281.562C420.245 280.098 424.066 273.948 424.677 267.944C425.289 262.087 425.289 255.204 418.106 257.254C411.839 255.644 415.812 243.051 415.812 243.051L404.961 233.826L369.196 232.068Z" fill="white"/>
<path opacity="0.5" d="M410.31 321.977C410.005 322.855 409.547 323.734 409.087 324.613C405.114 331.788 387.995 345.26 387.995 345.26L382.799 330.031L379.895 345.26C374.087 342.917 356.662 328.42 356.662 328.42C356.662 328.42 356.052 327.103 355.287 324.906C355.899 324.76 356.204 324.613 356.204 324.613C356.204 324.613 355.44 316.706 357.579 311.434C361.707 304.844 371.336 306.456 371.336 306.456C371.336 306.456 384.48 300.891 391.664 303.966C398.847 307.042 406.184 304.698 408.629 307.627C411.227 310.556 409.699 321.831 409.699 321.831L410.31 321.977Z" fill="white"/>
<path opacity="0.2" d="M456.469 338.963L410.157 322.123L409.546 321.977C409.546 321.977 409.699 320.806 409.852 319.049L408.935 324.76L402.057 333.692C402.057 333.692 413.673 337.645 423.454 342.771C430.332 346.285 434.153 353.314 433.236 360.635L424.677 430.483L421.162 470.165L431.708 480.708C442.865 477.341 482.298 463.137 503.238 429.897C503.39 429.897 483.215 366.199 456.469 338.963ZM447.91 442.929C446.381 443.661 452.494 427.262 449.59 423.454C446.686 419.647 437.822 420.086 437.822 420.086L438.586 415.546C438.739 415.107 443.782 389.775 443.782 389.775L445.464 387.724C445.464 387.724 463.499 417.304 466.709 427.701C466.709 427.847 446.993 442.929 447.91 442.929Z" fill="black"/>
<path opacity="0.2" d="M347.95 423.454L340.767 400.465C340.767 400.465 327.929 358.292 319.064 347.895L321.357 377.621C321.357 377.621 313.715 413.057 306.683 423.6C299.653 434.143 298.124 436.78 306.683 436.78C315.243 436.78 336.029 452.593 336.029 452.593L334.5 439.415L347.95 423.454ZM329.916 432.386L324.108 427.554L338.628 393.289L344.894 419.647C344.894 419.647 334.96 418.915 331.597 421.258C328.082 423.454 329.916 432.386 329.916 432.386Z" fill="black"/>
<path d="M364.152 295.033C364.152 295.033 365.528 307.481 364.152 313.191" stroke="#263238" stroke-width="1.1031" stroke-miterlimit="10" stroke-linecap="round" stroke-linejoin="round"/>
<path d="M403.28 311.434C403.28 311.434 403.28 305.43 404.656 299.573" stroke="#263238" stroke-width="1.1031" stroke-miterlimit="10" stroke-linecap="round" stroke-linejoin="round"/>
<path d="M406.795 241.294C406.795 241.294 414.59 250.812 414.285 257.84C413.826 265.015 413.214 273.508 413.52 281.709C413.673 290.055 399.611 307.334 392.428 308.945C385.244 310.556 378.978 310.848 374.24 306.456C369.655 302.062 364.916 295.913 358.956 288.006C352.841 280.098 354.37 262.819 354.37 262.819" stroke="#263238" stroke-width="1.1031" stroke-miterlimit="10" stroke-linecap="round" stroke-linejoin="round"/>
<path d="M387.995 269.262C387.537 271.898 387.385 274.533 387.385 277.169C387.385 279.366 387.843 281.709 389.372 283.319C390.289 284.198 391.511 284.783 391.664 285.955C391.817 286.98 391.052 288.006 389.982 288.445C389.065 289.03 387.995 289.323 387.078 290.055" stroke="#263238" stroke-width="1.1031" stroke-miterlimit="10" stroke-linecap="round" stroke-linejoin="round"/>
<path d="M375.462 291.08C375.462 291.08 376.38 296.644 384.174 297.816" stroke="#263238" stroke-width="1.1031" stroke-miterlimit="10" stroke-linecap="round" stroke-linejoin="round"/>
<path d="M376.227 273.508C376.227 275.119 375.462 276.437 374.545 276.437C373.628 276.437 372.865 275.119 372.865 273.508C372.865 271.898 373.628 270.58 374.545 270.58C375.615 270.58 376.227 271.898 376.227 273.508Z" fill="#263238"/>
<path d="M399.611 274.24C399.611 275.851 398.847 277.169 397.93 277.169C397.014 277.169 396.249 275.851 396.249 274.24C396.249 272.63 397.014 271.312 397.93 271.312C398.999 271.312 399.611 272.63 399.611 274.24Z" fill="#263238"/>
<path d="M395.027 267.211C395.027 267.211 402.669 259.891 409.087 268.09" stroke="#263238" stroke-width="2.2062" stroke-miterlimit="10" stroke-linecap="round" stroke-linejoin="round"/>
<path d="M378.826 267.358C378.826 267.358 373.935 262.233 366.445 267.358" stroke="#263238" stroke-width="2.2062" stroke-miterlimit="10" stroke-linecap="round" stroke-linejoin="round"/>
<path d="M364.763 301.916C364.763 301.916 369.349 314.216 379.895 317.731C390.287 321.245 404.197 303.087 404.197 303.087L403.432 300.745C403.432 300.745 394.415 312.02 384.327 310.116C374.24 308.213 364.304 295.18 364.304 295.18L364.763 301.916Z" fill="#263238"/>
<path d="M355.44 279.805C355.44 279.805 349.174 281.855 347.645 277.315C345.965 272.63 340.309 260.476 345.353 256.376C350.244 252.276 354.217 261.794 354.217 261.794" stroke="#263238" stroke-width="1.1031" stroke-miterlimit="10" stroke-linecap="round" stroke-linejoin="round"/>
<path d="M413.52 282.294C413.52 282.294 419.328 283.466 421.01 278.78C422.69 274.094 428.346 261.941 423.302 257.84C418.411 253.74 414.437 263.258 414.437 263.258" stroke="#263238" stroke-width="1.1031" stroke-miterlimit="10" stroke-linecap="round" stroke-linejoin="round"/>
<path d="M354.217 273.508C355.899 273.362 358.803 271.898 359.72 270.434C360.637 268.968 360.943 267.358 361.248 265.747C361.86 262.673 362.165 259.451 362.165 256.376C362.165 255.204 362.165 253.887 362.471 252.715C362.929 251.544 363.694 250.372 364.611 249.493C366.75 247.004 369.349 244.954 371.489 242.465C373.475 239.975 375.004 236.754 374.545 233.679C374.545 233.679 388.607 245.979 408.935 242.173C419.786 240.122 430.332 230.896 429.11 219.475C428.652 215.376 425.442 212.446 421.468 211.421C416.119 210.104 411.227 212.885 406.336 214.643C397.472 217.865 388.76 212.3 379.742 211.421C372.1 210.689 362.624 211.568 358.65 218.889C358.65 218.889 344.741 220.5 338.781 231.336C332.667 242.173 344.283 257.254 344.283 257.254C344.283 257.254 348.869 251.837 354.829 262.819L354.217 273.508Z" fill="#263238"/>
<path d="M407.712 238.511C407.712 238.511 404.197 256.376 413.52 265.015C413.52 265.015 415.507 259.597 417.647 258.279C417.647 258.279 422.844 248.908 415.965 238.511C409.088 228.115 407.712 238.511 407.712 238.511Z" fill="#263238"/>
<path opacity="0.2" d="M424.831 218.157C423.455 223.137 419.176 226.943 414.131 228.847C401.14 233.972 388.607 228.261 375.615 227.236C365.069 226.358 353.3 235.436 352.536 245.979" stroke="white" stroke-width="1.1031" stroke-miterlimit="10" stroke-linecap="round" stroke-linejoin="round"/>
<path opacity="0.2" d="M344.588 243.051C344.741 234.851 350.396 226.943 358.344 223.869" stroke="white" stroke-width="1.1031" stroke-miterlimit="10" stroke-linecap="round" stroke-linejoin="round"/>
<path d="M361.248 311.434C361.248 311.434 369.807 320.513 381.423 324.612C381.423 324.612 397.014 320.366 404.808 309.97" stroke="#263238" stroke-width="1.1031" stroke-miterlimit="10" stroke-linecap="round" stroke-linejoin="round"/>
<path d="M377.067 285.476C383.973 282.442 387.004 274.619 383.837 268.003C380.669 261.387 372.503 258.483 365.598 261.518C358.692 264.552 355.661 272.375 358.828 278.991C361.996 285.607 370.162 288.511 377.067 285.476Z" stroke="#263238" stroke-width="1.1031" stroke-miterlimit="10" stroke-linecap="round" stroke-linejoin="round"/>
<path d="M403.703 286.575C411.243 285.688 416.604 279.113 415.678 271.889C414.752 264.666 407.889 259.528 400.349 260.415C392.808 261.302 387.447 267.878 388.374 275.103C389.3 282.326 396.163 287.463 403.703 286.575Z" stroke="#263238" stroke-width="1.1031" stroke-miterlimit="10" stroke-linecap="round" stroke-linejoin="round"/>
<path d="M364.152 306.602C364.152 306.602 360.026 307.481 357.581 311.58C355.135 315.681 356.664 328.567 356.664 328.567C356.664 328.567 369.197 340.427 379.895 345.406L383.105 328.42L387.995 345.406C387.995 345.406 404.502 334.131 409.088 324.76C409.088 324.76 410.616 313.777 409.088 310.116C407.56 306.456 404.197 306.602 404.197 306.602" stroke="#263238" stroke-width="1.1031" stroke-miterlimit="10" stroke-linecap="round" stroke-linejoin="round"/>
<path d="M344.589 420.086C344.589 420.086 339.698 388.603 333.125 375.717" stroke="#263238" stroke-width="1.1031" stroke-miterlimit="10" stroke-linecap="round" stroke-linejoin="round"/>
<path d="M319.064 347.895C319.064 347.895 325.331 356.242 329.152 364.15" stroke="#263238" stroke-width="1.1031" stroke-miterlimit="10" stroke-linecap="round" stroke-linejoin="round"/>
<path d="M447.91 371.325C449.59 365.028 451.424 359.61 453.258 355.949" stroke="#263238" stroke-width="1.1031" stroke-miterlimit="10" stroke-linecap="round" stroke-linejoin="round"/>
<path d="M437.669 420.086C437.669 420.086 441.185 398.561 445.464 380.697" stroke="#263238" stroke-width="1.1031" stroke-miterlimit="10" stroke-linecap="round" stroke-linejoin="round"/>
<path d="M443.782 389.774C447.145 385.528 452.036 382.307 457.385 380.842" stroke="#263238" stroke-width="1.1031" stroke-miterlimit="10" stroke-linecap="round" stroke-linejoin="round"/>
<path d="M409.699 321.831C409.699 321.831 438.127 332.666 456.622 338.963C456.622 338.963 479.242 359.317 503.544 429.897C503.544 429.897 481.381 465.773 439.044 477.194" stroke="#263238" stroke-width="1.1031" stroke-miterlimit="10" stroke-linecap="round" stroke-linejoin="round"/>
<path d="M446.228 444.1L466.709 427.701C466.709 427.701 477.56 419.793 488.718 425.211" stroke="#263238" stroke-width="1.1031" stroke-miterlimit="10" stroke-linecap="round" stroke-linejoin="round"/>
<path d="M445.464 387.871C445.464 387.871 462.43 411.74 466.709 427.847" stroke="#263238" stroke-width="1.1031" stroke-miterlimit="10" stroke-linecap="round" stroke-linejoin="round"/>
<path d="M330.069 433.265L324.108 427.847C324.108 427.847 315.242 426.383 305.155 432.825" stroke="#263238" stroke-width="1.1031" stroke-miterlimit="10" stroke-linecap="round" stroke-linejoin="round"/>
<path d="M324.108 427.847C324.108 427.847 331.596 404.418 338.781 392.411" stroke="#263238" stroke-width="1.1031" stroke-miterlimit="10" stroke-linecap="round" stroke-linejoin="round"/>
<path d="M356.204 324.76C356.204 324.76 315.242 339.549 311.269 343.796C307.295 348.042 292.011 430.483 291.553 439.854C291.246 448.347 323.037 467.237 338.933 475.144" stroke="#263238" stroke-width="1.1031" stroke-miterlimit="10" stroke-linecap="round" stroke-linejoin="round"/>
<path d="M504.461 311.434H457.692C452.189 311.434 447.757 307.188 447.757 301.916V275.705C447.757 270.434 452.189 266.187 457.692 266.187H504.461C509.963 266.187 514.396 270.434 514.396 275.705V301.916C514.548 307.188 510.117 311.434 504.461 311.434Z" fill="white" stroke="#263238" stroke-width="1.1031" stroke-miterlimit="10" stroke-linecap="round" stroke-linejoin="round"/>
<path d="M469.308 279.805L456.622 287.42L468.39 297.524" stroke="#263238" stroke-width="1.1031" stroke-miterlimit="10" stroke-linecap="round" stroke-linejoin="round"/>
<path d="M492.692 298.256L504.308 288.884L491.01 280.537" stroke="#263238" stroke-width="1.1031" stroke-miterlimit="10" stroke-linecap="round" stroke-linejoin="round"/>
<path d="M475.573 304.112L485.05 275.705" stroke="#263238" stroke-width="1.1031" stroke-miterlimit="10" stroke-linecap="round" stroke-linejoin="round"/>
<path d="M386.773 352.582C386.773 354.046 385.55 355.217 384.022 355.217C382.494 355.217 381.27 354.046 381.27 352.582C381.27 351.116 382.494 349.945 384.022 349.945C385.55 349.945 386.773 351.116 386.773 352.582Z" fill="#263238"/>
<path d="M434.306 490.52H341.073C339.851 490.52 338.934 489.642 338.934 488.469C338.934 487.298 339.851 486.419 341.073 486.419H434.306C435.53 486.419 436.447 487.298 436.447 488.469C436.447 489.494 435.377 490.52 434.306 490.52Z" fill="#263238"/>
<path d="M437.517 483.491L450.05 427.262C450.814 423.6 447.91 420.086 443.936 420.086H334.96C330.986 420.086 328.082 423.6 328.846 427.262L340.003 481.588C340.615 484.37 343.061 486.273 345.965 486.419L431.25 488.323C434.307 488.323 436.905 486.419 437.517 483.491Z" fill="white" stroke="#263238" stroke-width="1.1031" stroke-miterlimit="10" stroke-linecap="round" stroke-linejoin="round"/>
<path d="M397.777 452.447C397.777 456.987 393.956 460.794 389.065 460.794C384.174 460.794 380.353 457.133 380.353 452.447C380.353 447.762 384.174 444.1 389.065 444.1C393.956 444.1 397.777 447.908 397.777 452.447Z" fill="#263238"/>
<path d="M414.895 425.358H427.735" stroke="#263238" stroke-width="1.1031" stroke-miterlimit="10" stroke-linecap="round" stroke-linejoin="round"/>
<path d="M352.995 425.358H402.21" stroke="#263238" stroke-width="1.1031" stroke-miterlimit="10" stroke-linecap="round" stroke-linejoin="round"/>
<path d="M437.669 543.235L427.735 568.275C427.735 568.275 402.363 562.124 369.96 555.828C336.029 549.092 300.57 540.599 282.229 509.703C279.937 505.895 278.561 501.502 279.478 497.255C282.076 486.566 296.596 483.638 306.225 482.613C312.186 481.881 318.3 481.734 324.261 481.588C327.317 481.588 337.558 479.976 340.003 481.734C340.003 481.734 346.423 486.273 351.772 488.469C357.122 490.667 436.447 486.42 436.447 486.42C436.447 486.42 438.739 481.588 438.892 477.341C451.272 471.337 480.159 466.212 492.386 468.408C511.492 471.922 522.65 482.613 520.662 493.888C518.522 505.016 476.185 535.034 437.669 543.235Z" fill="#263238"/>
<path d="M437.669 543.235C437.669 543.235 413.52 537.084 393.956 524.345C374.24 511.606 358.956 496.816 331.444 499.891" stroke="white" stroke-width="1.1031" stroke-miterlimit="10" stroke-linecap="round" stroke-linejoin="round"/>
<path d="M389.371 521.27C401.752 517.902 410.922 510.142 420.856 502.674C431.402 494.766 442.56 487.298 454.635 481.44" stroke="white" stroke-width="1.1031" stroke-miterlimit="10" stroke-linecap="round" stroke-linejoin="round"/>
<path d="M385.091 275.705H388.76" stroke="#263238" stroke-width="1.1031" stroke-miterlimit="10" stroke-linecap="round" stroke-linejoin="round"/>
</svg>
