<svg width="93" height="18" viewBox="0 0 93 18" fill="none" xmlns="http://www.w3.org/2000/svg">
<path d="M5.446 10.95L11.034 17H7.646L3.158 11.786V17H0.65V0.72H3.158V10.18L7.558 4.878H11.034L5.446 10.95ZM15.3396 6.638C15.7063 6.022 16.1903 5.54533 16.7916 5.208C17.4076 4.856 18.1336 4.68 18.9696 4.68V7.276H18.3316C17.349 7.276 16.601 7.52533 16.0876 8.024C15.589 8.52267 15.3396 9.388 15.3396 10.62V17H12.8316V4.878H15.3396V6.638ZM26.533 17.198C25.389 17.198 24.355 16.9413 23.431 16.428C22.507 15.9 21.781 15.1667 21.253 14.228C20.725 13.2747 20.461 12.1747 20.461 10.928C20.461 9.696 20.7323 8.60333 21.275 7.65C21.8177 6.69667 22.5583 5.96333 23.497 5.45C24.4357 4.93667 25.4843 4.68 26.643 4.68C27.8017 4.68 28.8503 4.93667 29.789 5.45C30.7277 5.96333 31.4683 6.69667 32.011 7.65C32.5537 8.60333 32.825 9.696 32.825 10.928C32.825 12.16 32.5463 13.2527 31.989 14.206C31.4317 15.1593 30.669 15.9 29.701 16.428C28.7477 16.9413 27.6917 17.198 26.533 17.198ZM26.533 15.02C27.1783 15.02 27.7797 14.866 28.337 14.558C28.909 14.25 29.371 13.788 29.723 13.172C30.075 12.556 30.251 11.808 30.251 10.928C30.251 10.048 30.0823 9.30733 29.745 8.706C29.4077 8.09 28.9603 7.628 28.403 7.32C27.8457 7.012 27.2443 6.858 26.599 6.858C25.9537 6.858 25.3523 7.012 24.795 7.32C24.2523 7.628 23.8197 8.09 23.497 8.706C23.1743 9.30733 23.013 10.048 23.013 10.928C23.013 12.2333 23.343 13.2453 24.003 13.964C24.6777 14.668 25.521 15.02 26.533 15.02Z" fill="#263238"/>
<path d="M41.4203 4.68C42.3736 4.68 43.2243 4.878 43.9723 5.274C44.735 5.67 45.329 6.25667 45.7543 7.034C46.1796 7.81133 46.3923 8.75 46.3923 9.85V17H43.9063V10.224C43.9063 9.13867 43.635 8.31 43.0923 7.738C42.5496 7.15133 41.809 6.858 40.8703 6.858C39.9316 6.858 39.1836 7.15133 38.6263 7.738C38.0836 8.31 37.8123 9.13867 37.8123 10.224V17H35.3043V4.878H37.8123V6.264C38.223 5.76533 38.7436 5.37667 39.3743 5.098C40.0196 4.81933 40.7016 4.68 41.4203 4.68ZM60.5694 4.878V17H58.0614V15.57C57.6654 16.0687 57.1447 16.4647 56.4994 16.758C55.8687 17.0367 55.1941 17.176 54.4754 17.176C53.5221 17.176 52.6641 16.978 51.9014 16.582C51.1534 16.186 50.5594 15.5993 50.1194 14.822C49.6941 14.0447 49.4814 13.106 49.4814 12.006V4.878H51.9674V11.632C51.9674 12.7173 52.2387 13.5533 52.7814 14.14C53.3241 14.712 54.0647 14.998 55.0034 14.998C55.9421 14.998 56.6827 14.712 57.2254 14.14C57.7827 13.5533 58.0614 12.7173 58.0614 11.632V4.878H60.5694ZM70.1485 4.68C71.0725 4.68 71.8938 4.878 72.6125 5.274C73.3458 5.67 73.9178 6.25667 74.3285 7.034C74.7538 7.81133 74.9665 8.75 74.9665 9.85V17H72.4805V10.224C72.4805 9.13867 72.2092 8.31 71.6665 7.738C71.1238 7.15133 70.3832 6.858 69.4445 6.858C68.5058 6.858 67.7578 7.15133 67.2005 7.738C66.6578 8.31 66.3865 9.13867 66.3865 10.224V17H63.8785V0.72H66.3865V6.286C66.8118 5.77267 67.3472 5.37667 67.9925 5.098C68.6525 4.81933 69.3712 4.68 70.1485 4.68ZM82.5656 17.198C81.6123 17.198 80.7543 17.0293 79.9916 16.692C79.2436 16.34 78.6496 15.8707 78.2096 15.284C77.7696 14.6827 77.535 14.0153 77.5056 13.282H80.1016C80.1456 13.7953 80.3876 14.228 80.8276 14.58C81.2823 14.9173 81.847 15.086 82.5216 15.086C83.2256 15.086 83.7683 14.954 84.1496 14.69C84.5456 14.4113 84.7436 14.0593 84.7436 13.634C84.7436 13.1793 84.5236 12.842 84.0836 12.622C83.6583 12.402 82.9763 12.16 82.0376 11.896C81.1283 11.6467 80.3876 11.4047 79.8156 11.17C79.2436 10.9353 78.745 10.576 78.3196 10.092C77.909 9.608 77.7036 8.97 77.7036 8.178C77.7036 7.53267 77.8943 6.946 78.2756 6.418C78.657 5.87533 79.1996 5.45 79.9036 5.142C80.6223 4.834 81.4436 4.68 82.3676 4.68C83.7463 4.68 84.8536 5.032 85.6896 5.736C86.5403 6.42533 86.995 7.37133 87.0536 8.574H84.5456C84.5016 8.03133 84.2816 7.59867 83.8856 7.276C83.4896 6.95333 82.9543 6.792 82.2796 6.792C81.6196 6.792 81.1136 6.91667 80.7616 7.166C80.4096 7.41533 80.2336 7.74533 80.2336 8.156C80.2336 8.47867 80.351 8.75 80.5856 8.97C80.8203 9.19 81.1063 9.366 81.4436 9.498C81.781 9.61533 82.2796 9.76933 82.9396 9.96C83.8196 10.1947 84.5383 10.4367 85.0956 10.686C85.6676 10.9207 86.159 11.2727 86.5696 11.742C86.9803 12.2113 87.193 12.8347 87.2076 13.612C87.2076 14.3013 87.017 14.9173 86.6356 15.46C86.2543 16.0027 85.7116 16.428 85.0076 16.736C84.3183 17.044 83.5043 17.198 82.5656 17.198ZM90.9296 17.154C90.4749 17.154 90.0936 17 89.7856 16.692C89.4776 16.384 89.3236 16.0027 89.3236 15.548C89.3236 15.0933 89.4776 14.712 89.7856 14.404C90.0936 14.096 90.4749 13.942 90.9296 13.942C91.3696 13.942 91.7436 14.096 92.0516 14.404C92.3596 14.712 92.5136 15.0933 92.5136 15.548C92.5136 16.0027 92.3596 16.384 92.0516 16.692C91.7436 17 91.3696 17.154 90.9296 17.154Z" fill="url(#paint0_linear_3_107)"/>
<defs>
<linearGradient id="paint0_linear_3_107" x1="39" y1="4" x2="107" y2="26" gradientUnits="userSpaceOnUse">
<stop stop-color="#11EF76"/>
<stop offset="1" stop-color="#20E77A" stop-opacity="0"/>
</linearGradient>
</defs>
</svg>
