<svg viewBox="0 0 15 15" fill="none" xmlns="http://www.w3.org/2000/svg">
<path d="M8.4375 7.5C8.4375 8.01855 8.01855 8.4375 7.5 8.4375C6.98145 8.4375 6.5625 8.01855 6.5625 7.5V0.9375C6.5625 0.419824 6.98145 0 7.5 0C8.01855 0 8.4375 0.419824 8.4375 0.9375V7.5ZM2.34375 7.5C2.34375 10.3477 4.65234 12.6562 7.5 12.6562C10.3477 12.6562 12.6562 10.3477 12.6562 7.5C12.6562 5.90625 11.9326 4.47949 10.7959 3.5332C10.3975 3.20215 10.3418 2.61123 10.6729 2.21309C11.0039 1.81494 11.5957 1.76074 11.9941 2.0918C13.541 3.38086 14.5312 5.32617 14.5312 7.47363C14.5312 11.3818 11.3818 14.5312 7.5 14.5312C3.61816 14.5312 0.46875 11.3818 0.46875 7.47363C0.46875 5.32617 1.45752 3.38086 3.00586 2.0918C3.4043 1.76074 3.99609 1.81494 4.32715 2.21309C4.63184 2.61123 4.60254 3.20215 4.2041 3.5332C3.06738 4.47949 2.34375 5.90625 2.34375 7.5Z"/>
</svg>
